<svg id="Layer_1" data-name="Layer 1" xmlns="http://www.w3.org/2000/svg" xmlns:xlink="http://www.w3.org/1999/xlink" viewBox="0 0 492 492"><defs><style>.cls-1{fill:url(#linear-gradient);}.cls-2{fill:url(#linear-gradient-2);}.cls-3{fill:url(#linear-gradient-3);}.cls-4{fill:#be1e2d;}.cls-5{fill:url(#linear-gradient-4);}.cls-6{fill:none;stroke:#bbbdbf;stroke-miterlimit:10;stroke-width:13.02px;}</style><linearGradient id="linear-gradient" x1="300" y1="54" x2="300" y2="546" gradientUnits="userSpaceOnUse"><stop offset="0" stop-color="#37b098"/><stop offset="1" stop-color="#107671"/></linearGradient><linearGradient id="linear-gradient-2" x1="233.16" y1="351.83" x2="366.36" y2="351.83" gradientUnits="userSpaceOnUse"><stop offset="0" stop-color="#5b6b72"/><stop offset="0.06" stop-color="#627278"/><stop offset="0.35" stop-color="#849097"/><stop offset="0.51" stop-color="#919ca2"/><stop offset="0.63" stop-color="#8b979d"/><stop offset="0.79" stop-color="#7b888f"/><stop offset="0.97" stop-color="#617077"/><stop offset="1" stop-color="#5b6b72"/></linearGradient><linearGradient id="linear-gradient-3" x1="221.65" y1="173.26" x2="221.65" y2="257.94" gradientUnits="userSpaceOnUse"><stop offset="0.06" stop-color="#abb8bd"/><stop offset="1" stop-color="#5b6b72"/></linearGradient><linearGradient id="linear-gradient-4" x1="266.48" y1="256.96" x2="314.11" y2="304.59" gradientUnits="userSpaceOnUse"><stop offset="0" stop-color="#d51f30"/><stop offset="1" stop-color="#992121"/></linearGradient></defs><title>ModuleIcon_SettingsUtilities3</title><path class="cls-1" d="M545.12,279.51A13.65,13.65,0,0,0,531.05,267a55.58,55.58,0,0,1-27.6-6.63c-17.5-9.11-30.25-26.27-32.26-45.9a58.52,58.52,0,0,1,19.58-50.15c5.25-4.62,5.5-12.72,1.12-18.17a247.41,247.41,0,0,0-34.26-35A13.65,13.65,0,0,0,437.72,114,58.67,58.67,0,0,1,332.83,94.18a59.9,59.9,0,0,1-.9-23.49,13.52,13.52,0,0,0-12.09-15.88Q310,54,300,54a243.66,243.66,0,0,0-29.2,1.77,13.62,13.62,0,0,0-11.72,15.71,59.6,59.6,0,0,1-1.33,23.88,58.65,58.65,0,0,1-101.81,22.29,13.54,13.54,0,0,0-19.41-1.38,247.34,247.34,0,0,0-27.93,29.31c-4.44,5.5-4.17,13.7,1.19,18.32a58.58,58.58,0,0,1,20.06,50.71c-2.06,19.89-15.07,37.31-33,46.24A55.88,55.88,0,0,1,69.15,267a13.64,13.64,0,0,0-14.27,12.47Q54,289.62,54,300q0,10.73.93,21.22a13.65,13.65,0,0,0,14.26,12.46A55.87,55.87,0,0,1,96.8,339.8c17.87,8.89,30.89,26.22,33,46.07A58.55,58.55,0,0,1,110,436.55c-5.31,4.63-5.57,12.8-1.13,18.27a247.38,247.38,0,0,0,25.85,27.33,13.54,13.54,0,0,0,19.81-1.79,58.67,58.67,0,0,1,104,47.38,13.62,13.62,0,0,0,11.53,16.42A244.55,244.55,0,0,0,300,546q10.39,0,20.57-.85a13.53,13.53,0,0,0,11.91-16.6,59.15,59.15,0,0,1-.22-23.72c4.81-25.15,26.43-44.64,51.93-47a58.63,58.63,0,0,1,54.91,26.47,13.54,13.54,0,0,0,20.17,3.19,247.42,247.42,0,0,0,32.22-33.1c4.41-5.47,4.28-13.56-1-18.24a58.49,58.49,0,0,1-19.34-49.81c2-19.56,14.6-36.66,32-45.85a55.52,55.52,0,0,1,27.87-6.8,13.64,13.64,0,0,0,14-12.47Q546,310.71,546,300,546,289.64,545.12,279.51ZM300,455.31A158.14,158.14,0,1,1,458.14,297.17,158.14,158.14,0,0,1,300,455.31Z" transform="translate(-54 -54)"/><path class="cls-2" d="M233.16,348.12s59.77-21.31,106.29-6l26.91,13.56-7.09,11.16s-60.7-12.93-119,.26Z" transform="translate(-54 -54)"/><polygon class="cls-3" points="233.78 231.65 209.44 257.94 209.44 173.26 233.85 173.26 233.78 231.65"/><polygon class="cls-4" points="233.78 231.65 169.33 296.1 186.31 313.09 209.44 289.96 233.78 231.65"/><polygon class="cls-5" points="305.27 312.83 257.94 265.55 275.02 248.43 322.68 296.03 305.27 312.83"/><circle class="cls-6" cx="246" cy="243.17" r="142.43"/></svg>